<?xml version="1.0" encoding="UTF-8" standalone="no"?>
<svg width="64" height="64" viewBox="0 0 64 64" fill="none" xmlns="http://www.w3.org/2000/svg">
<path d="M60 53.53H10.47V4C10.47 3.73478 10.3646 3.48043 10.1771 3.29289C9.98957 3.10536 9.73522 3 9.47 3C9.20478 3 8.95043 3.10536 8.76289 3.29289C8.57536 3.48043 8.47 3.73478 8.47 4V11.42H4C3.73478 11.42 3.48043 11.5254 3.29289 11.7129C3.10536 11.9004 3 12.1548 3 12.42C3 12.6852 3.10536 12.9396 3.29289 13.1271C3.48043 13.3146 3.73478 13.42 4 13.42H8.47V19.84H4C3.73478 19.84 3.48043 19.9454 3.29289 20.1329C3.10536 20.3204 3 20.5748 3 20.84C3 21.1052 3.10536 21.3596 3.29289 21.5471C3.48043 21.7346 3.73478 21.84 4 21.84H8.47V28.26H4C3.73478 28.26 3.48043 28.3654 3.29289 28.5529C3.10536 28.7404 3 28.9948 3 29.26C3 29.5252 3.10536 29.7796 3.29289 29.9671C3.48043 30.1546 3.73478 30.26 4 30.26H8.47V36.69H4C3.73478 36.69 3.48043 36.7954 3.29289 36.9829C3.10536 37.1704 3 37.4248 3 37.69C3 37.9552 3.10536 38.2096 3.29289 38.3971C3.48043 38.5846 3.73478 38.69 4 38.69H8.47V45.11H4C3.73478 45.11 3.48043 45.2154 3.29289 45.4029C3.10536 45.5904 3 45.8448 3 46.11C3 46.3752 3.10536 46.6296 3.29289 46.8171C3.48043 47.0046 3.73478 47.11 4 47.11H8.47V54.53C8.47 54.7952 8.57536 55.0496 8.76289 55.2371C8.95043 55.4246 9.20478 55.53 9.47 55.53H16.89V60C16.89 60.2652 16.9954 60.5196 17.1829 60.7071C17.3704 60.8946 17.6248 61 17.89 61C18.1552 61 18.4096 60.8946 18.5971 60.7071C18.7846 60.5196 18.89 60.2652 18.89 60V55.53H25.31V60C25.31 60.2652 25.4154 60.5196 25.6029 60.7071C25.7904 60.8946 26.0448 61 26.31 61C26.5752 61 26.8296 60.8946 27.0171 60.7071C27.2046 60.5196 27.31 60.2652 27.31 60V55.53H33.74V60C33.74 60.2652 33.8454 60.5196 34.0329 60.7071C34.2204 60.8946 34.4748 61 34.74 61C35.0052 61 35.2596 60.8946 35.4471 60.7071C35.6346 60.5196 35.74 60.2652 35.74 60V55.53H42.16V60C42.16 60.2652 42.2654 60.5196 42.4529 60.7071C42.6404 60.8946 42.8948 61 43.16 61C43.4252 61 43.6796 60.8946 43.8671 60.7071C44.0546 60.5196 44.16 60.2652 44.16 60V55.53H50.58V60C50.58 60.2652 50.6854 60.5196 50.8729 60.7071C51.0604 60.8946 51.3148 61 51.58 61C51.8452 61 52.0996 60.8946 52.2871 60.7071C52.4746 60.5196 52.58 60.2652 52.58 60V55.53H60C60.2652 55.53 60.5196 55.4246 60.7071 55.2371C60.8946 55.0496 61 54.7952 61 54.53C61 54.2648 60.8946 54.0104 60.7071 53.8229C60.5196 53.6354 60.2652 53.53 60 53.53Z" fill="#6E83B7"/>
<path d="M24.9 38.64C24.969 38.7638 25.0636 38.8715 25.1774 38.956C25.2911 39.0405 25.4216 39.0998 25.56 39.13C25.6971 39.1611 25.8392 39.1629 25.9771 39.1353C26.1149 39.1078 26.2454 39.0514 26.36 38.97L35.59 32.33L43.27 42.24C43.4268 42.4425 43.6552 42.5771 43.9082 42.6162C44.1612 42.6552 44.4196 42.5958 44.63 42.45L49.46 39.12L57.55 49.58C57.6432 49.701 57.7628 49.7991 57.8998 49.8667C58.0367 49.9343 58.1873 49.9697 58.34 49.97C58.5266 49.9696 58.7093 49.9169 58.8676 49.8181C59.0258 49.7192 59.1532 49.578 59.2354 49.4105C59.3176 49.243 59.3513 49.0559 59.3326 48.8703C59.314 48.6846 59.2438 48.5079 59.13 48.36L50.46 37.15C50.3033 36.9476 50.0749 36.813 49.8219 36.7739C49.5689 36.7348 49.3105 36.7943 49.1 36.94L44.27 40.27L36.58 30.34C36.4213 30.1336 36.1884 29.9972 35.9306 29.9598C35.6729 29.9225 35.4108 29.9871 35.2 30.14L26.12 36.69L14.65 15.54C14.5241 15.3066 14.3105 15.1329 14.0564 15.0569C13.8023 14.9809 13.5284 15.0091 13.295 15.135C13.0616 15.261 12.8879 15.4745 12.8119 15.7287C12.736 15.9828 12.7641 16.2566 12.89 16.49L24.9 38.64Z" fill="#98CA69"/>
<path d="M36.37 19.57C36.3133 19.35 36.1834 19.1558 36.0016 19.0195C35.8199 18.8832 35.5971 18.8128 35.37 18.82H29.24C29.0129 18.8128 28.7902 18.8832 28.6084 19.0195C28.4266 19.1558 28.2967 19.35 28.24 19.57L26.82 25.06C26.7809 25.2091 26.7769 25.3652 26.8081 25.5161C26.8393 25.667 26.905 25.8087 27 25.93C27.0942 26.0492 27.2143 26.1454 27.3512 26.2112C27.488 26.277 27.6381 26.3108 27.79 26.31H36.79C36.9453 26.315 37.0996 26.2837 37.2407 26.2186C37.3817 26.1536 37.5057 26.0565 37.6028 25.9352C37.6998 25.8139 37.7673 25.6717 37.7998 25.5197C37.8323 25.3678 37.8289 25.2104 37.79 25.06L36.37 19.57Z" fill="#FFC20E"/>
<path d="M48 19.57C47.9433 19.35 47.8134 19.1558 47.6316 19.0195C47.4498 18.8832 47.2271 18.8128 47 18.82H40.83C40.6029 18.8128 40.3801 18.8832 40.1984 19.0195C40.0166 19.1558 39.8867 19.35 39.83 19.57L38.41 25.06C38.3709 25.2091 38.3668 25.3652 38.3981 25.5161C38.4293 25.667 38.495 25.8087 38.59 25.93C38.6842 26.0492 38.8042 26.1454 38.9411 26.2112C39.078 26.277 39.2281 26.3108 39.38 26.31H48.38C48.5353 26.315 48.6895 26.2837 48.8306 26.2186C48.9717 26.1536 49.0957 26.0565 49.1927 25.9352C49.2898 25.8139 49.3572 25.6717 49.3897 25.5197C49.4222 25.3678 49.4189 25.2104 49.38 25.06L48 19.57Z" fill="#FFC20E"/>
<path d="M39.4101 10.5H48.4101C48.5628 10.4996 48.7134 10.4643 48.8503 10.3967C48.9873 10.3291 49.1069 10.231 49.2001 10.11C49.2936 9.98983 49.3584 9.84988 49.3896 9.70084C49.4208 9.5518 49.4175 9.3976 49.3801 9.25001L48.0001 3.75001C47.9434 3.52999 47.8134 3.33584 47.6317 3.19951C47.4499 3.06319 47.2271 2.99283 47.0001 3.00001H40.8301C40.603 2.99283 40.3802 3.06319 40.1984 3.19951C40.0167 3.33584 39.8867 3.52999 39.8301 3.75001L38.4101 9.25001C38.3711 9.40041 38.3678 9.55781 38.4003 9.70973C38.4328 9.86165 38.5003 10.0039 38.5973 10.1252C38.6944 10.2465 38.8183 10.3436 38.9594 10.4086C39.1005 10.4737 39.2548 10.505 39.4101 10.5Z" fill="#FFC20E"/>
<path d="M60.9999 25.06L59.5799 19.57C59.5233 19.35 59.3933 19.1558 59.2116 19.0195C59.0298 18.8832 58.807 18.8128 58.5799 18.82H52.4199C52.1929 18.8128 51.9701 18.8832 51.7883 19.0195C51.6066 19.1558 51.4766 19.35 51.4199 19.57L49.9999 25.06C49.9609 25.2091 49.9568 25.3652 49.988 25.5161C50.0192 25.667 50.0849 25.8087 50.1799 25.93C50.2741 26.0492 50.3942 26.1454 50.5311 26.2112C50.668 26.277 50.8181 26.3108 50.9699 26.31H59.9699C60.1252 26.315 60.2795 26.2837 60.4206 26.2186C60.5617 26.1536 60.6856 26.0565 60.7827 25.9352C60.8797 25.8139 60.9472 25.6717 60.9797 25.5197C61.0122 25.3678 61.0089 25.2104 60.9699 25.06H60.9999Z" fill="#FFC20E"/>
<path d="M33.46 18.41H42.46C42.6128 18.4096 42.7634 18.3743 42.9003 18.3067C43.0372 18.2391 43.1569 18.141 43.25 18.02C43.3435 17.8998 43.4084 17.7599 43.4396 17.6108C43.4707 17.4618 43.4675 17.3076 43.43 17.16L42 11.66C41.9434 11.44 41.8134 11.2458 41.6317 11.1095C41.4499 10.9732 41.2271 10.9028 41 10.91H34.88C34.653 10.9028 34.4302 10.9732 34.2484 11.1095C34.0667 11.2458 33.9367 11.44 33.88 11.66L32.46 17.16C32.4226 17.3076 32.4193 17.4618 32.4505 17.6108C32.4817 17.7599 32.5465 17.8998 32.64 18.02C32.7363 18.1451 32.8607 18.2456 33.0032 18.3134C33.1457 18.3812 33.3023 18.4143 33.46 18.41Z" fill="#FFC20E"/>
<path d="M45.5 11.66L44.08 17.16C44.0426 17.3076 44.0393 17.4618 44.0705 17.6108C44.1017 17.7599 44.1665 17.8998 44.26 18.02C44.3532 18.141 44.4728 18.2391 44.6098 18.3067C44.7467 18.3743 44.8973 18.4096 45.05 18.41H54.05C54.2028 18.4096 54.3534 18.3743 54.4903 18.3067C54.6272 18.2391 54.7469 18.141 54.84 18.02C54.9335 17.8998 54.9984 17.7599 55.0295 17.6108C55.0607 17.4618 55.0575 17.3076 55.02 17.16L53.6 11.66C53.5433 11.44 53.4134 11.2458 53.2317 11.1095C53.0499 10.9732 52.8271 10.9028 52.6 10.91H46.47C46.248 10.9096 46.0322 10.9831 45.8566 11.1189C45.681 11.2547 45.5555 11.445 45.5 11.66Z" fill="#FFC20E"/>
</svg>
